<svg width="167" height="25" viewBox="0 0 167 25" fill="none" xmlns="http://www.w3.org/2000/svg">
<rect y="0.0899658" width="166.16" height="24.22" rx="5" fill="white" fill-opacity="0.14"/>
<g clip-path="url(#clip0_2_633)">
<g clip-path="url(#clip1_2_633)">
<path fill-rule="evenodd" clip-rule="evenodd" d="M19.9538 6.18628H11.2917V17.8549C11.2917 18.0739 11.4762 18.1522 11.7016 18.0289L15.2129 16.757C15.4383 16.6336 15.8072 16.6336 16.0326 16.7569L19.5439 18.0289C19.7693 18.1521 19.9538 18.0739 19.9538 17.8549V6.18628ZM15.6209 9.70265C14.9874 9.70265 14.4104 9.94433 13.9771 10.3404L13.3714 9.73482C13.3025 9.66597 13.1847 9.71471 13.1847 9.81206V12.1369C13.1847 13.4813 14.2754 14.5712 15.6209 14.5712C16.2544 14.5712 16.8314 14.3295 17.2647 13.9334L17.8704 14.5388C17.9393 14.6076 18.0571 14.5589 18.0571 14.4615V12.1369C18.0571 10.7925 16.9664 9.70265 15.6209 9.70265ZM15.6244 13.1797C15.0478 13.1797 14.5804 12.7126 14.5804 12.1364C14.5804 11.5602 15.0478 11.0932 15.6244 11.0932C16.2011 11.0932 16.6685 11.5602 16.6685 12.1364C16.6685 12.7126 16.2011 13.1797 15.6244 13.1797Z" fill="#FAFAFA"/>
</g>
</g>
<path d="M31.772 16.164C29.504 16.164 27.692 14.484 27.692 12.024C27.692 9.56396 29.504 7.88396 31.772 7.88396C33.224 7.88396 34.208 8.56796 34.844 9.46796L34.004 9.93596C33.548 9.26396 32.72 8.77196 31.772 8.77196C30.056 8.77196 28.724 10.116 28.724 12.024C28.724 13.92 30.056 15.276 31.772 15.276C32.72 15.276 33.548 14.796 34.004 14.112L34.856 14.58C34.184 15.492 33.224 16.164 31.772 16.164ZM35.7533 13.116C35.7533 11.436 36.9533 10.08 38.6093 10.08C40.3613 10.08 41.3933 11.448 41.3933 13.188V13.416H36.7013C36.7733 14.508 37.5413 15.42 38.7893 15.42C39.4493 15.42 40.1213 15.156 40.5773 14.688L41.0093 15.276C40.4333 15.852 39.6533 16.164 38.7053 16.164C36.9893 16.164 35.7533 14.928 35.7533 13.116ZM38.5973 10.824C37.3613 10.824 36.7493 11.868 36.7013 12.756H40.5053C40.4933 11.892 39.9173 10.824 38.5973 10.824ZM42.851 16.02V10.224H43.751V11.16C44.219 10.548 44.891 10.104 45.6831 10.104V11.028C45.575 11.004 45.467 10.992 45.3231 10.992C44.771 10.992 44.015 11.448 43.751 11.916V16.02H42.851ZM48.276 16.164C47.424 16.164 46.992 15.672 46.992 14.808V11.016H46.032V10.224H46.992V8.63996H47.892V10.224H49.068V11.016H47.892V14.616C47.892 15.048 48.084 15.36 48.48 15.36C48.732 15.36 48.972 15.252 49.092 15.12L49.356 15.792C49.128 16.008 48.804 16.164 48.276 16.164ZM50.7833 9.25196C50.4593 9.25196 50.1833 8.97596 50.1833 8.63996C50.1833 8.30396 50.4593 8.03996 50.7833 8.03996C51.1193 8.03996 51.3953 8.30396 51.3953 8.63996C51.3953 8.97596 51.1193 9.25196 50.7833 9.25196ZM50.3393 16.02V10.224H51.2393V16.02H50.3393ZM53.2866 16.02V11.016H52.3266V10.224H53.2866V9.77996C53.2866 8.57996 53.9586 7.89596 54.9666 7.89596C55.3026 7.89596 55.6146 7.95596 55.8426 8.09996L55.6146 8.78396C55.4826 8.69996 55.3266 8.63996 55.0986 8.63996C54.5106 8.63996 54.1866 9.04796 54.1866 9.77996V10.224H55.3626V11.016H54.1866V16.02H53.2866ZM56.8746 9.25196C56.5506 9.25196 56.2746 8.97596 56.2746 8.63996C56.2746 8.30396 56.5506 8.03996 56.8746 8.03996C57.2106 8.03996 57.4866 8.30396 57.4866 8.63996C57.4866 8.97596 57.2106 9.25196 56.8746 9.25196ZM56.4306 16.02V10.224H57.3306V16.02H56.4306ZM58.8041 13.116C58.8041 11.4 59.9681 10.08 61.6961 10.08C62.7521 10.08 63.3761 10.512 63.8201 11.088L63.2201 11.64C62.8361 11.112 62.3441 10.884 61.7441 10.884C60.5081 10.884 59.7401 11.832 59.7401 13.116C59.7401 14.4 60.5081 15.36 61.7441 15.36C62.3441 15.36 62.8361 15.12 63.2201 14.604L63.8201 15.156C63.3761 15.732 62.7521 16.164 61.6961 16.164C59.9681 16.164 58.8041 14.844 58.8041 13.116ZM68.7055 16.02V15.36C68.2255 15.888 67.5655 16.164 66.7855 16.164C65.8015 16.164 64.7575 15.504 64.7575 14.244C64.7575 12.948 65.8015 12.336 66.7855 12.336C67.5775 12.336 68.2375 12.588 68.7055 13.128V12.084C68.7055 11.304 68.0815 10.86 67.2415 10.86C66.5455 10.86 65.9815 11.112 65.4655 11.664L65.0455 11.04C65.6695 10.392 66.4135 10.08 67.3615 10.08C68.5855 10.08 69.6055 10.632 69.6055 12.036V16.02H68.7055ZM68.7055 14.796V13.704C68.3575 13.224 67.7455 12.984 67.1095 12.984C66.2695 12.984 65.6815 13.512 65.6815 14.256C65.6815 14.988 66.2695 15.516 67.1095 15.516C67.7455 15.516 68.3575 15.276 68.7055 14.796ZM72.8736 16.164C72.0216 16.164 71.5896 15.672 71.5896 14.808V11.016H70.6296V10.224H71.5896V8.63996H72.4896V10.224H73.6656V11.016H72.4896V14.616C72.4896 15.048 72.6816 15.36 73.0776 15.36C73.3296 15.36 73.5696 15.252 73.6896 15.12L73.9536 15.792C73.7256 16.008 73.4016 16.164 72.8736 16.164ZM75.381 9.25196C75.057 9.25196 74.781 8.97596 74.781 8.63996C74.781 8.30396 75.057 8.03996 75.381 8.03996C75.717 8.03996 75.993 8.30396 75.993 8.63996C75.993 8.97596 75.717 9.25196 75.381 9.25196ZM74.937 16.02V10.224H75.837V16.02H74.937ZM80.1643 16.164C78.4003 16.164 77.2963 14.796 77.2963 13.116C77.2963 11.436 78.4003 10.08 80.1643 10.08C81.9283 10.08 83.0323 11.436 83.0323 13.116C83.0323 14.796 81.9283 16.164 80.1643 16.164ZM80.1643 15.36C81.4003 15.36 82.0843 14.304 82.0843 13.116C82.0843 11.94 81.4003 10.884 80.1643 10.884C78.9283 10.884 78.2323 11.94 78.2323 13.116C78.2323 14.304 78.9283 15.36 80.1643 15.36ZM88.4115 16.02V12.228C88.4115 11.208 87.8955 10.884 87.1155 10.884C86.4075 10.884 85.7355 11.316 85.3995 11.784V16.02H84.4995V10.224H85.3995V11.064C85.8075 10.584 86.5995 10.08 87.4635 10.08C88.6755 10.08 89.3115 10.692 89.3115 11.952V16.02H88.4115ZM94.2386 16.02V8.01596H97.4546C99.0626 8.01596 99.9626 9.11996 99.9626 10.428C99.9626 11.736 99.0386 12.84 97.4546 12.84H95.2346V16.02H94.2386ZM98.9306 10.428C98.9306 9.52796 98.2826 8.90396 97.3346 8.90396H95.2346V11.952H97.3346C98.2826 11.952 98.9306 11.328 98.9306 10.428ZM101.246 16.02V10.224H102.146V11.16C102.614 10.548 103.286 10.104 104.078 10.104V11.028C103.97 11.004 103.862 10.992 103.718 10.992C103.166 10.992 102.41 11.448 102.146 11.916V16.02H101.246ZM107.739 16.164C105.975 16.164 104.871 14.796 104.871 13.116C104.871 11.436 105.975 10.08 107.739 10.08C109.503 10.08 110.607 11.436 110.607 13.116C110.607 14.796 109.503 16.164 107.739 16.164ZM107.739 15.36C108.975 15.36 109.659 14.304 109.659 13.116C109.659 11.94 108.975 10.884 107.739 10.884C106.503 10.884 105.807 11.94 105.807 13.116C105.807 14.304 106.503 15.36 107.739 15.36ZM112.062 17.508L112.518 16.836C112.998 17.412 113.574 17.628 114.402 17.628C115.362 17.628 116.262 17.16 116.262 15.888V15.06C115.842 15.648 115.134 16.092 114.318 16.092C112.806 16.092 111.738 14.964 111.738 13.092C111.738 11.232 112.794 10.08 114.318 10.08C115.098 10.08 115.794 10.464 116.262 11.1V10.224H117.162V15.852C117.162 17.772 115.818 18.372 114.402 18.372C113.418 18.372 112.746 18.18 112.062 17.508ZM116.262 14.352V11.82C115.95 11.316 115.254 10.884 114.534 10.884C113.37 10.884 112.674 11.808 112.674 13.092C112.674 14.364 113.37 15.3 114.534 15.3C115.254 15.3 115.95 14.856 116.262 14.352ZM118.964 16.02V10.224H119.864V11.16C120.332 10.548 121.004 10.104 121.796 10.104V11.028C121.688 11.004 121.58 10.992 121.436 10.992C120.884 10.992 120.128 11.448 119.864 11.916V16.02H118.964ZM126.549 16.02V15.36C126.069 15.888 125.409 16.164 124.629 16.164C123.645 16.164 122.601 15.504 122.601 14.244C122.601 12.948 123.645 12.336 124.629 12.336C125.421 12.336 126.081 12.588 126.549 13.128V12.084C126.549 11.304 125.925 10.86 125.085 10.86C124.389 10.86 123.825 11.112 123.309 11.664L122.889 11.04C123.513 10.392 124.257 10.08 125.205 10.08C126.429 10.08 127.449 10.632 127.449 12.036V16.02H126.549ZM126.549 14.796V13.704C126.201 13.224 125.589 12.984 124.953 12.984C124.113 12.984 123.525 13.512 123.525 14.256C123.525 14.988 124.113 15.516 124.953 15.516C125.589 15.516 126.201 15.276 126.549 14.796ZM136.249 16.02V12.084C136.249 11.352 135.925 10.884 135.181 10.884C134.581 10.884 133.945 11.316 133.645 11.772V16.02H132.745V12.084C132.745 11.352 132.433 10.884 131.677 10.884C131.089 10.884 130.465 11.316 130.153 11.784V16.02H129.253V10.224H130.153V11.064C130.393 10.692 131.173 10.08 132.025 10.08C132.913 10.08 133.417 10.56 133.585 11.16C133.909 10.632 134.689 10.08 135.529 10.08C136.585 10.08 137.149 10.668 137.149 11.832V16.02H136.249ZM145.941 16.02V12.084C145.941 11.352 145.617 10.884 144.873 10.884C144.273 10.884 143.637 11.316 143.337 11.772V16.02H142.437V12.084C142.437 11.352 142.125 10.884 141.369 10.884C140.781 10.884 140.157 11.316 139.845 11.784V16.02H138.945V10.224H139.845V11.064C140.085 10.692 140.865 10.08 141.717 10.08C142.605 10.08 143.109 10.56 143.277 11.16C143.601 10.632 144.381 10.08 145.221 10.08C146.277 10.08 146.841 10.668 146.841 11.832V16.02H145.941ZM148.3 13.116C148.3 11.436 149.5 10.08 151.156 10.08C152.908 10.08 153.94 11.448 153.94 13.188V13.416H149.248C149.32 14.508 150.088 15.42 151.336 15.42C151.996 15.42 152.668 15.156 153.124 14.688L153.556 15.276C152.98 15.852 152.2 16.164 151.252 16.164C149.536 16.164 148.3 14.928 148.3 13.116ZM151.144 10.824C149.908 10.824 149.296 11.868 149.248 12.756H153.052C153.04 11.892 152.464 10.824 151.144 10.824Z" fill="#FAFAFA"/>
<defs>
<clipPath id="clip0_2_633">
<rect width="9" height="12.1406" fill="white" transform="translate(11.08 6.12964)"/>
</clipPath>
<clipPath id="clip1_2_633">
<rect width="9" height="12.1406" fill="white" transform="translate(11.08 6.12964)"/>
</clipPath>
</defs>
</svg>
