<svg width="12" height="12" viewBox="0 0 12 12" fill="none" xmlns="http://www.w3.org/2000/svg">
<g clip-path="url(#clip0_2_642)">
<g clip-path="url(#clip1_2_642)">
<path d="M10.7309 4.68545L7.50703 4.23641L6.06586 1.43634C6.02652 1.35968 5.96174 1.29761 5.88174 1.25989C5.68112 1.16497 5.43734 1.24407 5.33703 1.43634L3.89586 4.23641L0.67198 4.68545C0.583096 4.69762 0.501832 4.73777 0.439614 4.79862C0.364396 4.87271 0.322948 4.97239 0.324377 5.07576C0.325805 5.1791 0.369994 5.27774 0.447233 5.34988L2.77976 7.52934L2.22869 10.6069C2.21577 10.6785 2.22403 10.7521 2.25255 10.8194C2.28107 10.8867 2.32869 10.945 2.39003 10.9877C2.45137 11.0304 2.52397 11.0558 2.59958 11.0609C2.6752 11.0661 2.75081 11.0509 2.81785 11.017L5.70143 9.564L8.58503 11.017C8.66377 11.0571 8.75519 11.0705 8.84281 11.0559C9.06374 11.0194 9.21229 10.8186 9.17421 10.6069L8.62315 7.52934L10.9557 5.34988C11.0192 5.29024 11.061 5.21235 11.0737 5.12718C11.108 4.91422 10.9531 4.71709 10.7309 4.68545Z" fill="#F7C852"/>
</g>
</g>
<defs>
<clipPath id="clip0_2_642">
<rect width="11" height="10.56" fill="white" transform="translate(0.160034 0.919983)"/>
</clipPath>
<clipPath id="clip1_2_642">
<rect width="11" height="10.56" fill="white" transform="translate(0.160034 0.919983)"/>
</clipPath>
</defs>
</svg>
